<svg xmlns="http://www.w3.org/2000/svg" viewBox="0 0 64 64" role="img" aria-label="Claqueta de cine">
  <defs>
    <linearGradient id="bg" x1="0" y1="0" x2="1" y2="1">
      <stop offset="0" stop-color="#1f2733"/>
      <stop offset="1" stop-color="#0f141b"/>
    </linearGradient>
  </defs>
  <rect x="4" y="6" width="56" height="52" rx="10" fill="url(#bg)"/>
  <rect x="10" y="12" width="44" height="14" rx="3" fill="#111827"/>
  <rect x="10" y="30" width="44" height="22" rx="3" fill="#1f2937"/>
  <g transform="translate(10 12)">
    <polygon points="0,0 8,0 3,14 0,14" fill="#f8fafc"/>
    <polygon points="10,0 18,0 13,14 10,14" fill="#e5e7eb"/>
    <polygon points="20,0 28,0 23,14 20,14" fill="#f8fafc"/>
    <polygon points="30,0 38,0 33,14 30,14" fill="#e5e7eb"/>
    <polygon points="40,0 44,0 44,14 35,14" fill="#f8fafc"/>
  </g>
  <line x1="16" y1="37" x2="48" y2="37" stroke="#94a3b8" stroke-width="2" opacity="0.7"/>
  <line x1="16" y1="43" x2="44" y2="43" stroke="#94a3b8" stroke-width="2" opacity="0.6"/>
  <circle cx="14" cy="19" r="2" fill="#9ca3af"/>
  <circle cx="50" cy="19" r="2" fill="#9ca3af"/>
</svg>
